<svg width="437" height="68" viewBox="0 0 437 68" fill="none" xmlns="http://www.w3.org/2000/svg">
<path d="M44.9973 1.01645H45.9973V0.0164544H44.9973V1.01645ZM39.0992 61.7759L38.4096 61.0518L38.4038 61.0573L39.0992 61.7759ZM6.70667 61.4951L6.02165 62.2236L6.70667 61.4951ZM0.434123 44.7371L0.434123 43.7371H-0.565877L-0.565877 44.7371H0.434123ZM16.3495 44.7371H17.3495V43.7371H16.3495V44.7371ZM18.0347 51.0096L17.2472 51.6259L17.2539 51.6344L17.2608 51.6428L18.0347 51.0096ZM27.3967 51.1968L26.6348 50.5492L27.3967 51.1968ZM28.9883 1.01645V0.0164544H27.9883V1.01645H28.9883ZM43.9973 1.01645L43.9973 45.7669H45.9973L45.9973 1.01645H43.9973ZM43.9973 45.7669C43.9973 52.5009 42.0923 57.5445 38.4096 61.0518L39.7889 62.5001C43.9703 58.5178 45.9973 52.8886 45.9973 45.7669H43.9973ZM38.4038 61.0573C34.7614 64.5823 29.79 66.3931 23.3711 66.3931V68.3931C30.1837 68.3931 35.6979 66.4592 39.7947 62.4945L38.4038 61.0573ZM23.3711 66.3931C16.642 66.3931 11.351 64.4894 7.3917 60.7665L6.02165 62.2236C10.4258 66.3648 16.2444 68.3931 23.3711 68.3931V66.3931ZM7.3917 60.7665C3.46075 57.0703 1.43412 51.7778 1.43412 44.7371H-0.565877C-0.565877 52.1762 1.5892 58.0557 6.02165 62.2236L7.3917 60.7665ZM0.434123 45.7371H16.3495V43.7371H0.434123L0.434123 45.7371ZM15.3495 44.7371C15.3495 47.5987 15.9318 49.9451 17.2472 51.6259L18.8222 50.3933C17.8908 49.2031 17.3495 47.3678 17.3495 44.7371H15.3495ZM17.2608 51.6428C18.6119 53.2942 20.5461 54.0692 22.903 54.0692L22.903 52.0692C21.0157 52.0692 19.7044 51.4712 18.8087 50.3764L17.2608 51.6428ZM22.903 54.0692C25.0725 54.0692 26.8727 53.3574 28.1587 51.8445L26.6348 50.5492C25.7987 51.5328 24.6031 52.0692 22.903 52.0692L22.903 54.0692ZM28.1587 51.8445C29.4294 50.3495 29.9883 48.2719 29.9883 45.7669H27.9883C27.9883 48.0053 27.4861 49.5477 26.6348 50.5492L28.1587 51.8445ZM29.9883 45.7669L29.9883 1.01645H27.9883L27.9883 45.7669H29.9883ZM28.9883 2.01645H44.9973V0.0164544H28.9883V2.01645ZM71.9716 63.0866L71.4823 63.9588L71.4869 63.9613L71.9716 63.0866ZM59.7074 51.1032L58.8417 51.6038L58.8453 51.61L58.8489 51.6162L59.7074 51.1032ZM59.7074 16.3702L58.8489 15.8572L58.8443 15.865L59.7074 16.3702ZM71.9716 4.38678L71.4869 3.51212L71.4823 3.51464L71.9716 4.38678ZM105.956 4.38678L105.466 5.25894L105.471 5.26143L105.956 4.38678ZM118.126 16.3702L117.259 16.8675L117.263 16.8753L118.126 16.3702ZM118.126 51.1032L118.989 51.6084L118.992 51.6038L118.126 51.1032ZM105.956 63.0866L106.445 63.9587L105.956 63.0866ZM101.556 47.5457L100.816 46.8723L100.81 46.8796L101.556 47.5457ZM101.556 19.8341L100.81 20.5001L100.816 20.5071L100.822 20.514L101.556 19.8341ZM76.2781 19.7405L75.5448 19.0605L75.5382 19.0678L76.2781 19.7405ZM76.2781 47.6393L75.5322 48.3053L75.5385 48.3123L75.5449 48.3192L76.2781 47.6393ZM89.0105 66.3931C82.9935 66.3931 77.4818 64.9971 72.4563 62.2119L71.4869 63.9613C76.822 66.9181 82.6696 68.3931 89.0105 68.3931V66.3931ZM72.4609 62.2145C67.4978 59.4303 63.536 55.5608 60.5658 50.5903L58.8489 51.6162C61.9953 56.8815 66.2096 61.0009 71.4823 63.9587L72.4609 62.2145ZM60.573 50.6026C57.6717 45.5857 56.2136 39.9562 56.2136 33.6899H54.2136C54.2136 40.2807 55.7513 46.2601 58.8417 51.6038L60.573 50.6026ZM56.2136 33.6899C56.2136 27.4235 57.6717 21.8272 60.5704 16.8753L58.8443 15.865C55.7513 21.1489 54.2136 27.0991 54.2136 33.6899H56.2136ZM60.5658 16.8831C63.536 11.9126 67.4978 8.04308 72.4609 5.25892L71.4823 3.51464C66.2096 6.47252 61.9953 10.5919 58.8489 15.8572L60.5658 16.8831ZM72.4563 5.26143C77.4818 2.47625 82.9935 1.08026 89.0105 1.08026V-0.919745C82.6696 -0.919745 76.822 0.55528 71.4869 3.51213L72.4563 5.26143ZM89.0105 1.08026C95.0275 1.08026 100.506 2.47622 105.466 5.25892L106.445 3.51464C101.17 0.555303 95.3513 -0.919745 89.0105 -0.919745V1.08026ZM105.471 5.26143C110.492 8.04434 114.416 11.9086 117.259 16.8674L118.994 15.8729C115.969 10.5959 111.78 6.47126 106.44 3.51213L105.471 5.26143ZM117.263 16.8753C120.162 21.8272 121.62 27.4235 121.62 33.6899H123.62C123.62 27.0991 122.082 21.1489 118.989 15.865L117.263 16.8753ZM121.62 33.6899C121.62 39.9562 120.162 45.5857 117.261 50.6026L118.992 51.6038C122.082 46.2601 123.62 40.2807 123.62 33.6899H121.62ZM117.263 50.598C114.356 55.5643 110.428 59.4313 105.466 62.2145L106.445 63.9587C111.72 60.9998 115.905 56.878 118.989 51.6084L117.263 50.598ZM105.466 62.2145C100.506 64.9972 95.0275 66.3931 89.0105 66.3931V68.3931C95.3513 68.3931 101.17 66.9181 106.445 63.9587L105.466 62.2145ZM89.0105 53.7884C94.5003 53.7884 98.9673 51.9459 102.301 48.2117L100.81 46.8796C97.9024 50.1357 94.0061 51.7884 89.0105 51.7884V53.7884ZM102.295 48.219C105.68 44.502 107.33 39.6248 107.33 33.6899H105.33C105.33 39.239 103.797 43.599 100.816 46.8723L102.295 48.219ZM107.33 33.6899C107.33 27.6966 105.682 22.8135 102.289 19.1542L100.822 20.514C103.795 23.7201 105.33 28.0743 105.33 33.6899H107.33ZM102.301 19.1681C98.9673 15.4338 94.5003 13.5914 89.0105 13.5914V15.5914C94.0061 15.5914 97.9024 17.2441 100.81 20.5001L102.301 19.1681ZM89.0105 13.5914C83.4679 13.5914 78.9433 15.3956 75.5449 19.0605L77.0114 20.4204C79.9791 17.2199 83.9428 15.5914 89.0105 15.5914V13.5914ZM75.5382 19.0678C72.2093 22.7296 70.5971 27.6425 70.5971 33.6899H72.5971C72.5971 28.0035 74.1056 23.6169 77.0181 20.4132L75.5382 19.0678ZM70.5971 33.6899C70.5971 39.6789 72.2113 44.5859 75.5322 48.3053L77.0241 46.9733C74.1036 43.7023 72.5971 39.3098 72.5971 33.6899H70.5971ZM75.5449 48.3192C78.9433 51.9842 83.4679 53.7884 89.0105 53.7884V51.7884C83.9428 51.7884 79.9791 50.1598 77.0114 46.9593L75.5449 48.3192ZM147.255 1.01645H148.255V0.0164544H147.255V1.01645ZM150.157 49.4181L149.418 50.0918L150.157 49.4181ZM167.289 49.4181L168.018 50.1034L167.289 49.4181ZM170.285 1.01645V0.0164544H169.285V1.01645H170.285ZM186.294 1.01645H187.294V0.0164544H186.294V1.01645ZM182.549 55.1289L183.401 55.653L182.549 55.1289ZM172.438 64.3037L172.002 63.404L171.997 63.4066L172.438 64.3037ZM144.446 64.3973L143.993 65.2889L144.001 65.2931L144.01 65.2971L144.446 64.3973ZM134.803 55.2225L133.937 55.7215L133.94 55.7272L134.803 55.2225ZM131.246 1.01645V0.0164544H130.246V1.01645H131.246ZM146.255 1.01645L146.255 40.3369H148.255L148.255 1.01645H146.255ZM146.255 40.3369C146.255 44.4253 147.262 47.7268 149.418 50.0918L150.896 48.7443C149.182 46.8652 148.255 44.1126 148.255 40.3369H146.255ZM149.418 50.0918C151.596 52.4802 154.741 53.6011 158.676 53.6011V51.6011C155.122 51.6011 152.588 50.6 150.896 48.7443L149.418 50.0918ZM158.676 53.6011C162.614 53.6011 165.781 52.4796 168.018 50.1034L166.561 48.7327C164.803 50.6006 162.228 51.6011 158.676 51.6011V53.6011ZM168.018 50.1034C170.243 47.739 171.285 44.433 171.285 40.3369H169.285C169.285 44.1049 168.33 46.8531 166.561 48.7327L168.018 50.1034ZM171.285 40.3369L171.285 1.01645H169.285L169.285 40.3369H171.285ZM170.285 2.01645L186.294 2.01645V0.0164544L170.285 0.0164544V2.01645ZM185.294 1.01645L185.294 40.2433H187.294L187.294 1.01645H185.294ZM185.294 40.2433C185.294 45.9679 184.077 50.7384 181.698 54.6048L183.401 55.653C186.015 51.4056 187.294 46.2524 187.294 40.2433H185.294ZM181.698 54.6048C179.3 58.5012 176.073 61.4283 172.002 63.404L172.875 65.2033C177.292 63.0597 180.806 59.8703 183.401 55.653L181.698 54.6048ZM171.997 63.4066C167.967 65.3913 163.44 66.3931 158.395 66.3931V68.3931C163.712 68.3931 168.546 67.3353 172.88 65.2008L171.997 63.4066ZM158.395 66.3931C153.346 66.3931 148.849 65.4206 144.882 63.4975L144.01 65.2971C148.282 67.3685 153.084 68.3931 158.395 68.3931V66.3931ZM144.899 63.5056C141.019 61.5358 137.945 58.6147 135.666 54.7178L133.94 55.7272C136.405 59.9441 139.759 63.1394 143.993 65.2889L144.899 63.5056ZM135.67 54.7235C133.404 50.7878 132.246 45.9757 132.246 40.2433H130.246C130.246 46.2446 131.459 51.4187 133.937 55.7215L135.67 54.7235ZM132.246 40.2433L132.246 1.01645H130.246L130.246 40.2433H132.246ZM131.246 2.01645L147.255 2.01645V0.0164544L131.246 0.0164544V2.01645ZM231.052 66.7378L230.176 67.2203L230.461 67.7378H231.052V66.7378ZM217.383 41.9285L218.259 41.4459L217.974 40.9285H217.383V41.9285ZM213.545 41.9285V40.9285H212.545V41.9285H213.545ZM213.545 66.7378V67.7378H214.545V66.7378H213.545ZM197.536 66.7378H196.536V67.7378H197.536V66.7378ZM197.536 1.01645V0.0164544H196.536V1.01645H197.536ZM237.605 3.73144L237.158 4.62589L237.164 4.62889L237.605 3.73144ZM245.844 11.221L244.975 11.7154L244.979 11.7228L245.844 11.221ZM244.814 33.409L244.005 32.8208L243.998 32.8306L244.814 33.409ZM233.954 40.7114L233.668 39.7532L232.45 40.1169L233.09 41.2149L233.954 40.7114ZM249.121 66.7378V67.7378H250.861L249.985 66.2343L249.121 66.7378ZM213.545 30.6004H212.545V31.6004H213.545V30.6004ZM230.022 28.4472L229.33 27.7252L229.323 27.7325L229.315 27.74L230.022 28.4472ZM230.022 16.4638L229.315 17.1709L229.323 17.1784L229.33 17.1858L230.022 16.4638ZM213.545 14.3105V13.3105H212.545V14.3105H213.545ZM231.928 66.2552L218.259 41.4459L216.508 42.411L230.176 67.2203L231.928 66.2552ZM217.383 40.9285H213.545V42.9285H217.383V40.9285ZM212.545 41.9285V66.7378H214.545V41.9285H212.545ZM213.545 65.7378H197.536V67.7378H213.545V65.7378ZM198.536 66.7378L198.536 1.01645H196.536L196.536 66.7378H198.536ZM197.536 2.01645L224.405 2.01645V0.0164544L197.536 0.0164544V2.01645ZM224.405 2.01645C229.472 2.01645 233.71 2.90197 237.158 4.62586L238.053 2.83701C234.26 0.940931 229.698 0.0164544 224.405 0.0164544V2.01645ZM237.164 4.62889C240.689 6.36152 243.275 8.72713 244.975 11.7153L246.713 10.7267C244.792 7.34879 241.886 4.72134 238.046 2.83399L237.164 4.62889ZM244.979 11.7228C246.694 14.6799 247.559 17.9998 247.559 21.7065H249.559C249.559 17.6739 248.614 14.0035 246.709 10.7193L244.979 11.7228ZM247.559 21.7065C247.559 25.8707 246.374 29.5643 244.005 32.8209L245.623 33.9972C248.248 30.3882 249.559 26.2802 249.559 21.7065H247.559ZM243.998 32.8306C241.717 36.048 238.302 38.3689 233.668 39.7532L234.24 41.6696C239.218 40.1828 243.043 37.6355 245.63 33.9875L243.998 32.8306ZM233.09 41.2149L248.257 67.2413L249.985 66.2343L234.818 40.2079L233.09 41.2149ZM249.121 65.7378H231.052V67.7378H249.121V65.7378ZM213.545 31.6004H223.469V29.6004H213.545V31.6004ZM223.469 31.6004C226.549 31.6004 229.036 30.847 230.729 29.1543L229.315 27.74C228.137 28.9183 226.255 29.6004 223.469 29.6004V31.6004ZM230.714 29.1691C232.458 27.4982 233.269 25.1797 233.269 22.3618H231.269C231.269 24.7867 230.582 26.5251 229.33 27.7252L230.714 29.1691ZM233.269 22.3618C233.269 19.6524 232.448 17.4036 230.714 15.7418L229.33 17.1858C230.592 18.395 231.269 20.0782 231.269 22.3618H233.269ZM230.729 15.7567C229.036 14.0639 226.549 13.3105 223.469 13.3105V15.3105C226.255 15.3105 228.137 15.9927 229.315 17.1709L230.729 15.7567ZM223.469 13.3105H213.545V15.3105H223.469V13.3105ZM212.545 14.3105L212.545 30.6004H214.545L214.545 14.3105H212.545ZM317.402 66.7378V67.7378H318.402V66.7378H317.402ZM301.393 66.7378L300.558 67.2889L300.855 67.7378H301.393V66.7378ZM274.617 26.2003L275.452 25.6491L273.617 22.8719V26.2003H274.617ZM274.617 66.7378V67.7378H275.617V66.7378H274.617ZM258.608 66.7378H257.608V67.7378H258.608V66.7378ZM258.608 1.01645V0.0164544H257.608V1.01645H258.608ZM274.617 1.01645L275.453 0.467085L275.157 0.0164544L274.617 0.0164544V1.01645ZM301.393 41.7412L300.557 42.2906L302.393 45.0825V41.7412H301.393ZM301.393 1.01645V0.0164544H300.393V1.01645H301.393ZM317.402 1.01645H318.402V0.0164544H317.402V1.01645ZM317.402 65.7378H301.393V67.7378H317.402V65.7378ZM302.227 66.1866L275.452 25.6491L273.783 26.7514L300.558 67.2889L302.227 66.1866ZM273.617 26.2003V66.7378H275.617V26.2003L273.617 26.2003ZM274.617 65.7378H258.608V67.7378H274.617V65.7378ZM259.608 66.7378V1.01645H257.608V66.7378H259.608ZM258.608 2.01645H274.617V0.0164544H258.608V2.01645ZM273.782 1.56582L300.557 42.2906L302.228 41.1918L275.453 0.467085L273.782 1.56582ZM302.393 41.7412V1.01645H300.393V41.7412H302.393ZM301.393 2.01645L317.402 2.01645V0.0164544L301.393 0.0164544V2.01645ZM316.402 1.01645V66.7378H318.402V1.01645H316.402ZM345.015 13.8424V12.8424H344.015V13.8424H345.015ZM345.015 27.1365H344.015V28.1365H345.015V27.1365ZM366.454 27.1365H367.454V26.1365H366.454V27.1365ZM366.454 39.4943V40.4943H367.454V39.4943H366.454ZM345.015 39.4943V38.4943H344.015V39.4943H345.015ZM345.015 53.9118H344.015V54.9118H345.015V53.9118ZM369.263 53.9118H370.263V52.9118H369.263V53.9118ZM369.263 66.7378V67.7378H370.263V66.7378H369.263ZM329.006 66.7378H328.006V67.7378H329.006V66.7378ZM329.006 1.01645V0.0164544H328.006V1.01645H329.006ZM369.263 1.01645H370.263V0.0164544H369.263V1.01645ZM369.263 13.8424V14.8424H370.263V13.8424H369.263ZM344.015 13.8424V27.1365H346.015V13.8424H344.015ZM345.015 28.1365L366.454 28.1365V26.1365H345.015V28.1365ZM365.454 27.1365V39.4943H367.454V27.1365H365.454ZM366.454 38.4943L345.015 38.4943V40.4943L366.454 40.4943V38.4943ZM344.015 39.4943V53.9118H346.015V39.4943H344.015ZM345.015 54.9118L369.263 54.9118V52.9118L345.015 52.9118V54.9118ZM368.263 53.9118V66.7378H370.263V53.9118H368.263ZM369.263 65.7378L329.006 65.7378V67.7378L369.263 67.7378V65.7378ZM330.006 66.7378V1.01645H328.006V66.7378H330.006ZM329.006 2.01645L369.263 2.01645V0.0164544L329.006 0.0164544V2.01645ZM368.263 1.01645V13.8424H370.263V1.01645H368.263ZM369.263 12.8424H345.015V14.8424H369.263V12.8424ZM436.016 1.01645L436.904 1.47572L437.658 0.0164544H436.016V1.01645ZM413.266 45.0179L412.378 44.5586L412.266 44.7747V45.0179H413.266ZM413.266 66.7378V67.7378H414.266V66.7378H413.266ZM397.257 66.7378H396.257V67.7378H397.257V66.7378ZM397.257 45.0179H398.257V44.7747L398.145 44.5586L397.257 45.0179ZM374.507 1.01645V0.0164544H372.864L373.619 1.47572L374.507 1.01645ZM392.67 1.01645L393.577 0.596616L393.309 0.0164544H392.67V1.01645ZM405.402 28.5408L404.494 28.9606L405.405 30.9299L406.311 28.9581L405.402 28.5408ZM418.041 1.01645V0.0164544H417.399L417.132 0.599161L418.041 1.01645ZM435.127 0.557188L412.378 44.5586L414.154 45.4772L436.904 1.47572L435.127 0.557188ZM412.266 45.0179V66.7378H414.266V45.0179H412.266ZM413.266 65.7378H397.257V67.7378H413.266V65.7378ZM398.257 66.7378V45.0179H396.257V66.7378H398.257ZM398.145 44.5586L375.396 0.557188L373.619 1.47572L396.369 45.4772L398.145 44.5586ZM374.507 2.01645H392.67V0.0164544H374.507V2.01645ZM391.762 1.4363L404.494 28.9606L406.309 28.1209L393.577 0.596616L391.762 1.4363ZM406.311 28.9581L418.949 1.43375L417.132 0.599161L404.493 28.1235L406.311 28.9581ZM418.041 2.01645H436.016V0.0164544H418.041V2.01645Z" fill="#59606D"/>
</svg>
