<svg width="35" height="35" viewBox="0 0 35 35" fill="none" xmlns="http://www.w3.org/2000/svg">
<path d="M12.1594 17.5H6.81885V13.2275C6.81885 10.871 8.73476 8.95508 11.0913 8.95508H11.6253C11.8359 8.95558 12.0445 8.91449 12.2391 8.83414C12.4337 8.75381 12.6105 8.63581 12.7594 8.48693C12.9083 8.33805 13.0263 8.16122 13.1066 7.96661C13.1869 7.77199 13.228 7.56342 13.2275 7.35287V4.14853C13.228 3.93798 13.1869 3.72941 13.1066 3.53479C13.0263 3.34017 12.9083 3.16335 12.7594 3.01447C12.6105 2.86559 12.4337 2.74759 12.2391 2.66725C12.0445 2.58691 11.8359 2.54581 11.6253 2.54632H11.0913C5.18998 2.54632 0.410156 7.32614 0.410156 13.2275V29.2493C0.410156 31.0183 1.84543 32.4536 3.6145 32.4536L12.1594 32.4536C13.9285 32.4536 15.3638 31.0183 15.3638 29.2493V20.7043C15.3638 18.9353 13.9285 17.5 12.1594 17.5ZM31.3855 17.5H26.0449V13.2275C26.0449 10.871 27.9608 8.95508 30.3174 8.95508H30.8514C31.062 8.95558 31.2705 8.91449 31.4651 8.83414C31.6598 8.75381 31.8366 8.63581 31.9855 8.48693C32.1343 8.33805 32.2523 8.16122 32.3327 7.96661C32.413 7.77199 32.4541 7.56342 32.4536 7.35287V4.14853C32.4541 3.93798 32.413 3.72941 32.3327 3.53479C32.2523 3.34017 32.1343 3.16335 31.9855 3.01447C31.8366 2.86559 31.6598 2.74759 31.4651 2.66725C31.2705 2.58691 31.062 2.54581 30.8514 2.54632H30.3174C24.4161 2.54632 19.6362 7.32614 19.6362 13.2275V29.2493C19.6362 31.0183 21.0715 32.4536 22.8406 32.4536H31.3855C33.1546 32.4536 34.5898 31.0183 34.5898 29.2493V20.7043C34.5898 18.9353 33.1546 17.5 31.3855 17.5Z" fill="#917FB3"/>
</svg>
