<svg width="1264" height="217" viewBox="0 0 1264 217" fill="none" xmlns="http://www.w3.org/2000/svg">
<path d="M41.4 208.6L41.2104 209.063L41.4 208.6ZM12 186.4L11.597 186.696L11.601 186.701L12 186.4ZM0.600001 151V150.5H0.0852985L0.100211 151.014L0.600001 151ZM55.2 151L55.6974 150.949L55.6513 150.5H55.2V151ZM63.3 169L62.9628 169.369L62.9719 169.377L63.3 169ZM99.3 169.9L99.6059 170.296L99.6166 170.287L99.3 169.9ZM100.5 142.3L100.146 142.654L100.152 142.659L100.157 142.664L100.5 142.3ZM87.6 133.9L87.3986 134.358L87.4052 134.36L87.6 133.9ZM66 126.4L65.8525 126.878L65.8573 126.879L66 126.4ZM10.5 95.2L10.8988 94.8984L10.5 95.2ZM22.5 17.2L22.8062 17.5953L22.8096 17.5926L22.5 17.2ZM134.1 17.2L133.79 17.5926L133.794 17.5953L134.1 17.2ZM156.9 63.4V63.9H157.426L157.399 63.3748L156.9 63.4ZM101.4 63.4L100.901 63.4294L100.929 63.9H101.4V63.4ZM93.9 47.5L93.5718 47.8774L93.5816 47.8855L93.9 47.5ZM61.2 46.6L61.5221 46.9825L61.5278 46.9776L61.5334 46.9726L61.2 46.6ZM65.1 76.6L65.3553 76.1701L65.1 76.6ZM95.1 88.9L95.2602 88.4263L95.2539 88.4243L95.1 88.9ZM128.1 102.1L127.876 102.547L127.881 102.549L128.1 102.1ZM150.3 120.4L149.905 120.706L150.3 120.4ZM150.3 184L149.877 183.733L149.874 183.739L150.3 184ZM123.9 207.4L123.676 206.953L123.9 207.4ZM82.8 215.6C67.4543 215.6 53.7202 213.109 41.5896 208.137L41.2104 209.063C53.4798 214.091 67.3457 216.6 82.8 216.6V215.6ZM41.5896 208.137C29.4663 203.169 19.741 195.822 12.399 186.099L11.601 186.701C19.059 196.578 28.9337 204.031 41.2104 209.063L41.5896 208.137ZM12.4029 186.104C5.27098 176.397 1.49726 164.698 1.09979 150.986L0.100211 151.014C0.502741 164.902 4.32903 176.803 11.5971 186.696L12.4029 186.104ZM0.600001 151.5H55.2V150.5H0.600001V151.5ZM54.7026 151.051C55.5118 158.94 58.2505 165.067 62.9629 169.369L63.6371 168.631C59.1495 164.533 56.4882 158.66 55.6974 150.949L54.7026 151.051ZM62.9719 169.377C67.6814 173.472 73.8064 175.5 81.3 175.5V174.5C73.9936 174.5 68.1186 172.528 63.6281 168.623L62.9719 169.377ZM81.3 175.5C88.9706 175.5 95.091 173.784 99.6057 170.296L98.9943 169.504C94.709 172.816 88.8294 174.5 81.3 174.5V175.5ZM99.6166 170.287C104.144 166.583 106.4 161.534 106.4 155.2H105.4C105.4 161.266 103.256 166.017 98.9834 169.513L99.6166 170.287ZM106.4 155.2C106.4 149.87 104.549 145.436 100.843 141.936L100.157 142.664C103.651 145.964 105.4 150.13 105.4 155.2H106.4ZM100.854 141.946C97.4008 138.494 93.044 135.66 87.7948 133.44L87.4052 134.36C92.556 136.54 96.7992 139.306 100.146 142.654L100.854 141.946ZM87.8014 133.442C82.773 131.23 75.5497 128.723 66.1427 125.921L65.8573 126.879C75.2503 129.677 82.427 132.17 87.3986 134.358L87.8014 133.442ZM66.1475 125.922C52.5615 121.727 41.488 117.535 32.9194 113.351L32.4806 114.249C41.112 118.465 52.2385 122.673 65.8525 126.878L66.1475 125.922ZM32.9194 113.351C24.3952 109.188 17.0551 103.041 10.8988 94.8984L10.1012 95.5015C16.3449 103.759 23.8048 110.012 32.4806 114.249L32.9194 113.351ZM10.8988 94.8984C4.78106 86.8072 1.7 76.2223 1.7 63.1H0.700001C0.700001 76.3777 3.81894 87.1928 10.1012 95.5015L10.8988 94.8984ZM1.7 63.1C1.7 43.6384 8.74072 28.4911 22.8062 17.5953L22.1938 16.8047C7.85928 27.9089 0.700001 43.3616 0.700001 63.1H1.7ZM22.8096 17.5926C36.9006 6.47861 55.2825 0.899994 78 0.899994V-0.100006C55.1175 -0.100006 36.4994 5.52138 22.1904 16.8074L22.8096 17.5926ZM78 0.899994C101.12 0.899994 119.701 6.47976 133.79 17.5926L134.41 16.8074C120.099 5.52023 101.28 -0.100006 78 -0.100006V0.899994ZM133.794 17.5953C147.866 28.4961 155.407 43.7538 156.401 63.4252L157.399 63.3748C156.393 43.4462 148.734 27.9039 134.406 16.8047L133.794 17.5953ZM156.9 62.9H101.4V63.9H156.9V62.9ZM101.899 63.3706C101.492 56.4536 98.9411 51.0159 94.2184 47.1145L93.5816 47.8855C98.0589 51.5841 100.508 56.7464 100.901 63.4294L101.899 63.3706ZM94.2281 47.1227C89.5211 43.0297 83.4976 41 76.2 41V42C83.3024 42 89.0789 43.9703 93.5719 47.8773L94.2281 47.1227ZM76.2 41C69.9048 41 64.7771 42.7285 60.8666 46.2274L61.5334 46.9726C65.2229 43.6715 70.0952 42 76.2 42V41ZM60.8779 46.2175C56.9379 49.5355 55 54.3923 55 60.7H56C56 54.6077 57.8621 50.0645 61.5221 46.9825L60.8779 46.2175ZM55 60.7C55 67.6957 58.3103 73.1501 64.8447 77.0299L65.3553 76.1701C59.0897 72.4499 56 67.3043 56 60.7H55ZM64.8447 77.0299C71.2938 80.8591 81.3368 84.9727 94.9461 89.3757L95.2539 88.4243C81.6633 84.0273 71.7062 79.9409 65.3553 76.1701L64.8447 77.0299ZM94.9398 89.3736C108.528 93.9697 119.505 98.3613 127.876 102.547L128.324 101.653C119.895 97.4387 108.872 93.0303 95.2602 88.4263L94.9398 89.3736ZM127.881 102.549C136.408 106.714 143.749 112.763 149.905 120.706L150.695 120.094C144.451 112.037 136.992 105.886 128.319 101.651L127.881 102.549ZM149.905 120.706C156.022 128.599 159.1 138.783 159.1 151.3H160.1C160.1 138.617 156.978 128.201 150.695 120.094L149.905 120.706ZM159.1 151.3C159.1 163.209 156.025 174.016 149.877 183.733L150.723 184.267C156.975 174.384 160.1 163.391 160.1 151.3H159.1ZM149.874 183.739C143.929 193.449 135.204 201.189 123.676 206.953L124.124 207.847C135.796 202.011 144.671 194.151 150.726 184.261L149.874 183.739ZM123.676 206.953C112.159 212.711 98.5391 215.6 82.8 215.6V216.6C98.6609 216.6 112.441 213.689 124.124 207.847L123.676 206.953ZM313.27 214L312.872 214.303L313.023 214.5H313.27V214ZM242.47 121L242.868 120.697L241.97 119.518V121H242.47ZM242.47 214V214.5H242.97V214H242.47ZM191.17 214H190.67V214.5H191.17V214ZM191.17 3.39999V2.89999H190.67V3.39999H191.17ZM242.47 3.39999H242.97V2.89999H242.47V3.39999ZM242.47 95.8H241.97V97.2846L242.868 96.1025L242.47 95.8ZM312.67 3.39999V2.89999H312.422L312.272 3.09752L312.67 3.39999ZM372.97 3.39999L373.363 3.71011L374.003 2.89999H372.97V3.39999ZM291.37 106.6L290.978 106.29L290.733 106.599L290.978 106.909L291.37 106.6ZM375.97 214V214.5H377.001L376.363 213.691L375.97 214ZM313.668 213.697L242.868 120.697L242.072 121.303L312.872 214.303L313.668 213.697ZM241.97 121V214H242.97V121H241.97ZM242.47 213.5H191.17V214.5H242.47V213.5ZM191.67 214V3.39999H190.67V214H191.67ZM191.17 3.89999H242.47V2.89999H191.17V3.89999ZM241.97 3.39999V95.8H242.97V3.39999H241.97ZM242.868 96.1025L313.068 3.70247L312.272 3.09752L242.072 95.4975L242.868 96.1025ZM312.67 3.89999H372.97V2.89999H312.67V3.89999ZM372.578 3.08987L290.978 106.29L291.763 106.91L373.363 3.71011L372.578 3.08987ZM290.978 106.909L375.578 214.309L376.363 213.691L291.763 106.291L290.978 106.909ZM375.97 213.5H313.27V214.5H375.97V213.5ZM531.45 176.8L531.924 176.64L531.809 176.3H531.45V176.8ZM452.85 176.8V176.3H452.491L452.376 176.64L452.85 176.8ZM440.25 214V214.5H440.609L440.724 214.16L440.25 214ZM386.55 214L386.08 213.83L385.837 214.5H386.55V214ZM462.75 3.39999V2.89999H462.399L462.28 3.22987L462.75 3.39999ZM522.15 3.39999L522.62 3.22987L522.501 2.89999H522.15V3.39999ZM598.35 214V214.5H599.063L598.82 213.83L598.35 214ZM544.05 214L543.576 214.16L543.691 214.5H544.05V214ZM518.25 137.2V137.7H518.947L518.724 137.04L518.25 137.2ZM492.15 60.1L492.624 59.9397L492.147 58.5326L491.676 59.9413L492.15 60.1ZM466.35 137.2L465.876 137.041L465.655 137.7H466.35V137.2ZM531.45 176.3H452.85V177.3H531.45V176.3ZM452.376 176.64L439.776 213.84L440.724 214.16L453.324 176.96L452.376 176.64ZM440.25 213.5H386.55V214.5H440.25V213.5ZM387.02 214.17L463.22 3.57011L462.28 3.22987L386.08 213.83L387.02 214.17ZM462.75 3.89999H522.15V2.89999H462.75V3.89999ZM521.68 3.57011L597.88 214.17L598.82 213.83L522.62 3.22987L521.68 3.57011ZM598.35 213.5H544.05V214.5H598.35V213.5ZM544.524 213.84L531.924 176.64L530.976 176.96L543.576 214.16L544.524 213.84ZM518.724 137.04L492.624 59.9397L491.676 60.2603L517.776 137.36L518.724 137.04ZM491.676 59.9413L465.876 137.041L466.824 137.359L492.624 60.2587L491.676 59.9413ZM466.35 137.7H518.25V136.7H466.35V137.7ZM809.941 214V214.5H810.441V214H809.941ZM758.641 214L758.224 214.276L758.372 214.5H758.641V214ZM672.841 84.1L673.259 83.8244L672.341 82.4358V84.1H672.841ZM672.841 214V214.5H673.341V214H672.841ZM621.541 214H621.041V214.5H621.541V214ZM621.541 3.39999V2.89999H621.041V3.39999H621.541ZM672.841 3.39999L673.259 3.12531L673.111 2.89999H672.841V3.39999ZM758.641 133.9L758.224 134.175L759.141 135.571V133.9H758.641ZM758.641 3.39999V2.89999H758.141V3.39999H758.641ZM809.941 3.39999H810.441V2.89999H809.941V3.39999ZM809.941 213.5H758.641V214.5H809.941V213.5ZM759.059 213.724L673.259 83.8244L672.424 84.3756L758.224 214.276L759.059 213.724ZM672.341 84.1V214H673.341V84.1H672.341ZM672.841 213.5H621.541V214.5H672.841V213.5ZM622.041 214V3.39999H621.041V214H622.041ZM621.541 3.89999H672.841V2.89999H621.541V3.89999ZM672.424 3.67467L758.224 134.175L759.059 133.625L673.259 3.12531L672.424 3.67467ZM759.141 133.9V3.39999H758.141V133.9H759.141ZM758.641 3.89999H809.941V2.89999H758.641V3.89999ZM809.441 3.39999V214H810.441V3.39999H809.441ZM984.227 16.6L984.462 16.1582L984.227 16.6ZM1022.63 53.8L1022.19 54.0452L1022.2 54.0516L1022.63 53.8ZM1022.63 163.6L1022.19 163.351L1022.19 163.355L1022.63 163.6ZM983.927 200.8L983.695 200.357L983.693 200.358L983.927 200.8ZM847.127 214H846.627V214.5H847.127V214ZM847.127 3.39999V2.89999H846.627V3.39999H847.127ZM898.427 47.2V46.7H897.927V47.2H898.427ZM898.427 169.6H897.927V170.1H898.427V169.6ZM926.027 3.89999C948.161 3.89999 967.477 8.28638 983.993 17.0417L984.462 16.1582C967.777 7.31361 948.294 2.89999 926.027 2.89999V3.89999ZM983.993 17.0417C1000.51 25.798 1013.24 38.1307 1022.19 54.0451L1023.06 53.5549C1014.02 37.4693 1001.14 25.002 984.462 16.1582L983.993 17.0417ZM1022.2 54.0516C1031.34 69.7652 1035.93 87.976 1035.93 108.7H1036.93C1036.93 87.824 1032.31 69.4348 1023.06 53.5484L1022.2 54.0516ZM1035.93 108.7C1035.93 129.223 1031.35 147.435 1022.19 163.351L1023.06 163.849C1032.31 147.765 1036.93 129.377 1036.93 108.7H1035.93ZM1022.19 163.355C1013.24 179.268 1000.41 191.6 983.695 200.357L984.159 201.243C1001.04 192.4 1014.01 179.932 1023.06 163.845L1022.19 163.355ZM983.693 200.358C967.177 209.114 947.96 213.5 926.027 213.5V214.5C948.095 214.5 967.478 210.086 984.162 201.242L983.693 200.358ZM926.027 213.5H847.127V214.5H926.027V213.5ZM847.627 214V3.39999H846.627V214H847.627ZM847.127 3.89999H926.027V2.89999H847.127V3.89999ZM922.727 170.1C942.22 170.1 957.46 164.772 968.378 154.057L967.677 153.343C956.995 163.828 942.035 169.1 922.727 169.1V170.1ZM968.378 154.057C979.298 143.338 984.727 128.194 984.727 108.7H983.727C983.727 128.006 978.356 142.862 967.677 153.343L968.378 154.057ZM984.727 108.7C984.727 89.205 979.298 73.9638 968.381 63.0464L967.674 63.7535C978.356 74.4362 983.727 89.395 983.727 108.7H984.727ZM968.381 63.0464C957.464 52.129 942.222 46.7 922.727 46.7V47.7C942.032 47.7 956.991 53.0709 967.674 63.7535L968.381 63.0464ZM922.727 46.7H898.427V47.7H922.727V46.7ZM897.927 47.2V169.6H898.927V47.2H897.927ZM898.427 170.1H922.727V169.1H898.427V170.1ZM1196.2 176.8L1196.67 176.64L1196.55 176.3H1196.2V176.8ZM1117.6 176.8V176.3H1117.24L1117.12 176.64L1117.6 176.8ZM1105 214V214.5H1105.35L1105.47 214.16L1105 214ZM1051.3 214L1050.83 213.83L1050.58 214.5H1051.3V214ZM1127.5 3.39999V2.89999H1127.15L1127.03 3.22987L1127.5 3.39999ZM1186.9 3.39999L1187.37 3.22987L1187.25 2.89999H1186.9V3.39999ZM1263.1 214V214.5H1263.81L1263.57 213.83L1263.1 214ZM1208.8 214L1208.32 214.16L1208.44 214.5H1208.8V214ZM1183 137.2V137.7H1183.69L1183.47 137.04L1183 137.2ZM1156.9 60.1L1157.37 59.9397L1156.89 58.5326L1156.42 59.9413L1156.9 60.1ZM1131.1 137.2L1130.62 137.041L1130.4 137.7H1131.1V137.2ZM1196.2 176.3H1117.6V177.3H1196.2V176.3ZM1117.12 176.64L1104.52 213.84L1105.47 214.16L1118.07 176.96L1117.12 176.64ZM1105 213.5H1051.3V214.5H1105V213.5ZM1051.77 214.17L1127.97 3.57011L1127.03 3.22987L1050.83 213.83L1051.77 214.17ZM1127.5 3.89999H1186.9V2.89999H1127.5V3.89999ZM1186.43 3.57011L1262.63 214.17L1263.57 213.83L1187.37 3.22987L1186.43 3.57011ZM1263.1 213.5H1208.8V214.5H1263.1V213.5ZM1209.27 213.84L1196.67 176.64L1195.72 176.96L1208.32 214.16L1209.27 213.84ZM1183.47 137.04L1157.37 59.9397L1156.42 60.2603L1182.52 137.36L1183.47 137.04ZM1156.42 59.9413L1130.62 137.041L1131.57 137.359L1157.37 60.2587L1156.42 59.9413ZM1131.1 137.7H1183V136.7H1131.1V137.7Z" fill="#917FB3"/>
</svg>
