<svg width="446" height="73" viewBox="0 0 446 73" fill="none" xmlns="http://www.w3.org/2000/svg">
<path d="M13.8 70.2L13.2312 71.588L13.8 70.2ZM4 62.8L2.79118 63.6881L2.79701 63.696L2.80294 63.7039L4 62.8ZM0.2 51V49.5H-1.34411L-1.29937 51.0435L0.2 51ZM18.4 51L19.8922 50.847L19.754 49.5H18.4V51ZM21.1 57L20.0886 58.1077L20.102 58.12L20.1157 58.1319L21.1 57ZM33.1 57.3L34.0172 58.4869L34.0337 58.4742L34.0499 58.4609L33.1 57.3ZM33.5 48.1L32.4393 49.1607L32.4545 49.1758L32.4701 49.1905L33.5 48.1ZM29.2 45.3L28.5959 46.673L28.6057 46.6773L28.6155 46.6814L29.2 45.3ZM22 42.8L21.5574 44.2332L21.5646 44.2354L21.5718 44.2376L22 42.8ZM10.9 38.6L10.2417 39.9478L10.9 38.6ZM3.5 32.4L4.69649 31.4953V31.4953L3.5 32.4ZM7.5 6.4L8.41863 7.58587L8.42893 7.57775L7.5 6.4ZM44.7 6.4L43.771 7.57779L43.7814 7.58582L44.7 6.4ZM52.3 21.8V23.3H53.8777L53.7981 21.7243L52.3 21.8ZM33.8 21.8L32.3026 21.8881L32.3856 23.3H33.8V21.8ZM31.3 16.5L30.3157 17.6319L30.3301 17.6444L30.3447 17.6564L31.3 16.5ZM20.4 16.2L21.3662 17.3474L21.3834 17.3329L21.4002 17.3179L20.4 16.2ZM21.7 26.2L22.4658 24.9102L21.7 26.2ZM31.7 30.3L32.1806 28.8791L32.1712 28.8759L32.1617 28.8728L31.7 30.3ZM42.7 34.7L42.0292 36.0417L42.0417 36.0479L42.7 34.7ZM50.1 40.8L48.9144 41.7189L50.1 40.8ZM50.1 62L48.8324 61.198L48.8265 61.2074L48.8207 61.2168L50.1 62ZM41.3 69.8L40.6292 68.4584L41.3 69.8ZM27.6 71.2C22.6294 71.2 18.2273 70.3934 14.3688 68.812L13.2312 71.588C17.506 73.34 22.3039 74.2 27.6 74.2V71.2ZM14.3688 68.812C10.5322 67.2396 7.48959 64.9321 5.19706 61.8961L2.80294 63.7039C5.44375 67.2012 8.93447 69.827 13.2312 71.588L14.3688 68.812ZM5.20882 61.9119C3.01293 58.923 1.82511 55.2947 1.69937 50.9565L-1.29937 51.0435C-1.15845 55.9053 0.18707 60.1436 2.79118 63.6881L5.20882 61.9119ZM0.2 52.5H18.4V49.5H0.2V52.5ZM16.9078 51.153C17.202 54.0213 18.2182 56.3999 20.0886 58.1077L22.1114 55.8923C20.9152 54.8 20.1313 53.1787 19.8922 50.847L16.9078 51.153ZM20.1157 58.1319C21.9774 59.7508 24.3524 60.5 27.1 60.5V57.5C24.9142 57.5 23.2893 56.9159 22.0843 55.8681L20.1157 58.1319ZM27.1 60.5C29.845 60.5 32.2064 59.8862 34.0172 58.4869L32.1828 56.1131C31.0603 56.9805 29.4217 57.5 27.1 57.5V60.5ZM34.0499 58.4609C35.8991 56.9479 36.8 54.8701 36.8 52.4H33.8C33.8 54.0632 33.2342 55.2521 32.1501 56.1391L34.0499 58.4609ZM36.8 52.4C36.8 50.2772 36.0465 48.4417 34.5299 47.0095L32.4701 49.1905C33.3535 50.0249 33.8 51.0561 33.8 52.4H36.8ZM34.5607 47.0393C33.2691 45.7478 31.6652 44.7142 29.7845 43.9185L28.6155 46.6814C30.2015 47.3524 31.4642 48.1855 32.4393 49.1607L34.5607 47.0393ZM29.8041 43.927C28.0522 43.1562 25.5824 42.302 22.4282 41.3624L21.5718 44.2376C24.6843 45.1647 27.0145 45.9771 28.5959 46.673L29.8041 43.927ZM22.4426 41.3668C17.9513 39.9798 14.3307 38.6061 11.5583 37.2521L10.2417 39.9478C13.2027 41.3939 16.982 42.8202 21.5574 44.2332L22.4426 41.3668ZM11.5583 37.2521C8.91881 35.9631 6.63182 34.055 4.69649 31.4953L2.30351 33.3047C4.50151 36.2117 7.14786 38.4369 10.2417 39.9478L11.5583 37.2521ZM4.69649 31.4953C2.87651 29.0883 1.9 25.8668 1.9 21.7H-1.1C-1.1 26.3331 -0.0098412 30.2451 2.30351 33.3047L4.69649 31.4953ZM1.9 21.7C1.9 15.5819 4.08883 10.9399 8.4186 7.58582L6.5814 5.21417C1.44451 9.19346 -1.1 14.7514 -1.1 21.7H1.9ZM8.42893 7.57775C12.835 4.10253 18.6476 2.3 26 2.3V-0.700001C18.1524 -0.700001 11.6317 1.2308 6.57107 5.22225L8.42893 7.57775ZM26 2.3C33.4928 2.3 39.3693 4.10595 43.7711 7.57775L45.6289 5.22225C40.564 1.22738 33.9739 -0.700001 26 -0.700001V2.3ZM43.7814 7.58582C48.1305 10.9549 50.4881 15.6615 50.8019 21.8757L53.7981 21.7243C53.4453 14.7385 50.7361 9.17847 45.6186 5.21417L43.7814 7.58582ZM52.3 20.3H33.8V23.3H52.3V20.3ZM35.2974 21.7119C35.1434 19.0941 34.1567 16.9143 32.2553 15.3436L30.3447 17.6564C31.5099 18.619 32.1899 19.9726 32.3026 21.8881L35.2974 21.7119ZM32.2843 15.3681C30.43 13.7557 28.0927 13 25.4 13V16C27.5073 16 29.1033 16.5776 30.3157 17.6319L32.2843 15.3681ZM25.4 13C23.0478 13 20.998 13.6522 19.3998 15.0821L21.4002 17.3179C22.3354 16.4811 23.6189 16 25.4 16V13ZM19.4338 15.0526C17.747 16.4731 17 18.5102 17 20.9H20C20 19.1565 20.5197 18.0602 21.3662 17.3474L19.4338 15.0526ZM17 20.9C17 23.7538 18.3977 25.9837 20.9342 27.4898L22.4658 24.9102C20.7357 23.8829 20 22.5795 20 20.9H17ZM20.9342 27.4898C23.2149 28.8439 26.6769 30.2514 31.2383 31.7272L32.1617 28.8728C27.6564 27.4152 24.4518 26.0894 22.4658 24.9102L20.9342 27.4898ZM31.2194 31.7209C35.7178 33.2424 39.3138 34.684 42.0292 36.0416L43.3708 33.3584C40.4862 31.916 36.7489 30.4242 32.1806 28.8791L31.2194 31.7209ZM42.0417 36.0479C44.6903 37.3413 46.9801 39.223 48.9144 41.7189L51.2856 39.8811C49.0866 37.0437 46.4431 34.8587 43.3583 33.3521L42.0417 36.0479ZM48.9144 41.7189C50.7316 44.0637 51.7 47.1495 51.7 51.1H54.7C54.7 46.6505 53.6017 42.8697 51.2856 39.8811L48.9144 41.7189ZM51.7 51.1C51.7 54.8265 50.7418 58.18 48.8324 61.198L51.3676 62.802C53.5916 59.2867 54.7 55.3735 54.7 51.1H51.7ZM48.8207 61.2168C46.9855 64.2143 44.2779 66.634 40.6292 68.4584L41.9708 71.1416C46.0554 69.0994 49.2145 66.3191 51.3793 62.7832L48.8207 61.2168ZM40.6292 68.4584C37.0114 70.2673 32.6839 71.2 27.6 71.2V74.2C33.0495 74.2 37.8553 73.1994 41.9708 71.1416L40.6292 68.4584ZM114.223 1.8H115.723V0.299999H114.223V1.8ZM114.223 15.5V17H115.723V15.5H114.223ZM95.6234 15.5V14H94.1234V15.5H95.6234ZM95.6234 72V73.5H97.1234V72H95.6234ZM78.5234 72H77.0234V73.5H78.5234V72ZM78.5234 15.5H80.0234V14H78.5234V15.5ZM59.9234 15.5H58.4234V17H59.9234V15.5ZM59.9234 1.8V0.299999H58.4234V1.8H59.9234ZM112.723 1.8V15.5H115.723V1.8H112.723ZM114.223 14H95.6234V17H114.223V14ZM94.1234 15.5V72H97.1234V15.5H94.1234ZM95.6234 70.5H78.5234V73.5H95.6234V70.5ZM80.0234 72V15.5H77.0234V72H80.0234ZM78.5234 14H59.9234V17H78.5234V14ZM61.4234 15.5V1.8H58.4234V15.5H61.4234ZM59.9234 3.3H114.223V0.299999H59.9234V3.3ZM139.605 1.8H141.105V0.299999H139.605V1.8ZM142.705 53.5L141.597 54.5106L142.705 53.5ZM161.005 53.5L162.098 54.528L161.005 53.5ZM164.205 1.8V0.299999H162.705V1.8H164.205ZM181.305 1.8H182.805V0.299999H181.305V1.8ZM177.305 59.6L178.583 60.3861L177.305 59.6ZM166.505 69.4L165.851 68.0505L165.843 68.0544L166.505 69.4ZM136.605 69.5L135.926 70.8375L135.939 70.8437L135.951 70.8497L136.605 69.5ZM126.305 59.7L125.006 60.4485L125.011 60.457L126.305 59.7ZM122.505 1.8V0.299999H121.005V1.8H122.505ZM138.105 1.8V43.8H141.105V1.8H138.105ZM138.105 43.8C138.105 48.2346 139.198 51.8796 141.597 54.5106L143.814 52.4894C142.079 50.5871 141.105 47.7654 141.105 43.8H138.105ZM141.597 54.5106C144.028 57.1768 147.519 58.4 151.805 58.4V55.4C148.092 55.4 145.516 54.3565 143.814 52.4894L141.597 54.5106ZM151.805 58.4C156.094 58.4 159.606 57.176 162.098 54.528L159.913 52.472C158.139 54.3574 155.516 55.4 151.805 55.4V58.4ZM162.098 54.528C164.573 51.8978 165.705 48.246 165.705 43.8H162.705C162.705 47.754 161.704 50.5689 159.913 52.472L162.098 54.528ZM165.705 43.8V1.8H162.705V43.8H165.705ZM164.205 3.3H181.305V0.299999H164.205V3.3ZM179.805 1.8V43.7H182.805V1.8H179.805ZM179.805 43.7C179.805 49.7533 178.519 54.7662 176.028 58.8139L178.583 60.3861C181.425 55.7671 182.805 50.18 182.805 43.7H179.805ZM176.028 58.8139C173.509 62.9065 170.124 65.9765 165.851 68.0505L167.16 70.7495C171.953 68.4235 175.768 64.9602 178.583 60.3861L176.028 58.8139ZM165.843 68.0544C161.604 70.142 156.835 71.2 151.505 71.2V74.2C157.243 74.2 162.473 73.058 167.168 70.7456L165.843 68.0544ZM151.505 71.2C146.169 71.2 141.431 70.1724 137.26 68.1503L135.951 70.8497C140.58 73.0943 145.775 74.2 151.505 74.2V71.2ZM137.285 68.1625C133.217 66.0973 129.993 63.0363 127.6 58.943L125.011 60.457C127.684 65.0303 131.328 68.5027 135.926 70.8375L137.285 68.1625ZM127.605 58.9516C125.231 54.8268 124.005 49.765 124.005 43.7H121.005C121.005 50.1683 122.314 55.7732 125.006 60.4484L127.605 58.9516ZM124.005 43.7V1.8H121.005V43.7H124.005ZM122.505 3.3H139.605V0.299999H122.505V3.3ZM239.013 6.19999L239.716 4.8747L239.013 6.19999ZM251.813 18.6L250.506 19.3354L250.511 19.3451L250.517 19.3548L251.813 18.6ZM251.813 55.2L250.513 54.4523L250.509 54.4584L250.506 54.4646L251.813 55.2ZM238.913 67.6L238.217 66.2712L238.211 66.2747L238.913 67.6ZM193.313 72H191.813V73.5H193.313V72ZM193.313 1.8V0.299999H191.813V1.8H193.313ZM210.413 16.4V14.9H208.913V16.4H210.413ZM210.413 57.2H208.913V58.7H210.413V57.2ZM219.613 3.3C226.813 3.3 233.03 4.72583 238.311 7.52529L239.716 4.8747C233.93 1.8075 227.214 0.299999 219.613 0.299999V3.3ZM238.311 7.52529C243.596 10.3273 247.65 14.2587 250.506 19.3354L253.121 17.8646C249.976 12.2746 245.497 7.93932 239.716 4.8747L238.311 7.52529ZM250.517 19.3548C253.433 24.3622 254.913 30.1947 254.913 36.9H257.913C257.913 29.7386 256.327 23.3712 253.11 17.8452L250.517 19.3548ZM254.913 36.9C254.913 43.5354 253.434 49.372 250.513 54.4523L253.114 55.9477C256.326 50.3613 257.913 43.9979 257.913 36.9H254.913ZM250.506 54.4646C247.653 59.5365 243.569 63.4678 238.217 66.2713L239.609 68.9287C245.457 65.8656 249.974 61.5301 253.121 55.9354L250.506 54.4646ZM238.211 66.2747C232.928 69.0752 226.744 70.5 219.613 70.5V73.5C227.15 73.5 233.832 71.9915 239.616 68.9253L238.211 66.2747ZM219.613 70.5H193.313V73.5H219.613V70.5ZM194.813 72V1.8H191.813V72H194.813ZM193.313 3.3H219.613V0.299999H193.313V3.3ZM218.513 58.7C225.257 58.7 230.711 56.8508 234.664 52.9705L232.563 50.8295C229.316 54.0159 224.703 55.7 218.513 55.7V58.7ZM234.664 52.9705C238.627 49.0813 240.513 43.6501 240.513 36.9H237.513C237.513 43.0833 235.8 47.652 232.563 50.8295L234.664 52.9705ZM240.513 36.9C240.513 30.1484 238.626 24.6915 234.674 20.7393L232.553 22.8607C235.8 26.1085 237.513 30.7182 237.513 36.9H240.513ZM234.674 20.7393C230.722 16.7871 225.265 14.9 218.513 14.9V17.9C224.695 17.9 229.305 19.6128 232.553 22.8607L234.674 20.7393ZM218.513 14.9H210.413V17.9H218.513V14.9ZM208.913 16.4V57.2H211.913V16.4H208.913ZM210.413 58.7H218.513V55.7H210.413V58.7ZM283.07 15.5V14H281.57V15.5H283.07ZM283.07 29.7H281.57V31.2H283.07V29.7ZM305.97 29.7H307.47V28.2H305.97V29.7ZM305.97 42.9V44.4H307.47V42.9H305.97ZM283.07 42.9V41.4H281.57V42.9H283.07ZM283.07 58.3H281.57V59.8H283.07V58.3ZM308.97 58.3H310.47V56.8H308.97V58.3ZM308.97 72V73.5H310.47V72H308.97ZM265.97 72H264.47V73.5H265.97V72ZM265.97 1.8V0.299999H264.47V1.8H265.97ZM308.97 1.8H310.47V0.299999H308.97V1.8ZM308.97 15.5V17H310.47V15.5H308.97ZM281.57 15.5V29.7H284.57V15.5H281.57ZM283.07 31.2H305.97V28.2H283.07V31.2ZM304.47 29.7V42.9H307.47V29.7H304.47ZM305.97 41.4H283.07V44.4H305.97V41.4ZM281.57 42.9V58.3H284.57V42.9H281.57ZM283.07 59.8H308.97V56.8H283.07V59.8ZM307.47 58.3V72H310.47V58.3H307.47ZM308.97 70.5H265.97V73.5H308.97V70.5ZM267.47 72V1.8H264.47V72H267.47ZM265.97 3.3H308.97V0.299999H265.97V3.3ZM307.47 1.8V15.5H310.47V1.8H307.47ZM308.97 14H283.07V17H308.97V14ZM382.871 72V73.5H384.371V72H382.871ZM365.771 72L364.519 72.8267L364.964 73.5H365.771V72ZM337.171 28.7L338.423 27.8733L335.671 23.7074V28.7H337.171ZM337.171 72V73.5H338.671V72H337.171ZM320.071 72H318.571V73.5H320.071V72ZM320.071 1.8V0.299999H318.571V1.8H320.071ZM337.171 1.8L338.424 0.975945L337.98 0.299999H337.171V1.8ZM365.771 45.3L364.518 46.1241L367.271 50.3119V45.3H365.771ZM365.771 1.8V0.299999H364.271V1.8H365.771ZM382.871 1.8H384.371V0.299999H382.871V1.8ZM382.871 70.5H365.771V73.5H382.871V70.5ZM367.023 71.1733L338.423 27.8733L335.919 29.5267L364.519 72.8267L367.023 71.1733ZM335.671 28.7V72H338.671V28.7H335.671ZM337.171 70.5H320.071V73.5H337.171V70.5ZM321.571 72V1.8H318.571V72H321.571ZM320.071 3.3H337.171V0.299999H320.071V3.3ZM335.918 2.62405L364.518 46.1241L367.024 44.4759L338.424 0.975945L335.918 2.62405ZM367.271 45.3V1.8H364.271V45.3H367.271ZM365.771 3.3H382.871V0.299999H365.771V3.3ZM381.371 1.8V72H384.371V1.8H381.371ZM445.766 1.8H447.266V0.299999H445.766V1.8ZM445.766 15.5V17H447.266V15.5H445.766ZM427.166 15.5V14H425.666V15.5H427.166ZM427.166 72V73.5H428.666V72H427.166ZM410.066 72H408.566V73.5H410.066V72ZM410.066 15.5H411.566V14H410.066V15.5ZM391.466 15.5H389.966V17H391.466V15.5ZM391.466 1.8V0.299999H389.966V1.8H391.466ZM444.266 1.8V15.5H447.266V1.8H444.266ZM445.766 14H427.166V17H445.766V14ZM425.666 15.5V72H428.666V15.5H425.666ZM427.166 70.5H410.066V73.5H427.166V70.5ZM411.566 72V15.5H408.566V72H411.566ZM410.066 14H391.466V17H410.066V14ZM392.966 15.5V1.8H389.966V15.5H392.966ZM391.466 3.3H445.766V0.299999H391.466V3.3Z" fill="#59606D"/>
</svg>
