<svg width="450" height="72" viewBox="0 0 450 72" fill="none" xmlns="http://www.w3.org/2000/svg">
<path d="M54.7 0.799999H56.2V-0.700001H54.7V0.799999ZM54.7 14.5V16H56.2V14.5H54.7ZM36.1 14.5V13H34.6V14.5H36.1ZM36.1 71V72.5H37.6V71H36.1ZM19 71H17.5V72.5H19V71ZM19 14.5H20.5V13H19V14.5ZM0.4 14.5H-1.1V16H0.4V14.5ZM0.4 0.799999V-0.700001H-1.1V0.799999H0.4ZM53.2 0.799999V14.5H56.2V0.799999H53.2ZM54.7 13H36.1V16H54.7V13ZM34.6 14.5V71H37.6V14.5H34.6ZM36.1 69.5H19V72.5H36.1V69.5ZM20.5 71V14.5H17.5V71H20.5ZM19 13H0.4V16H19V13ZM1.9 14.5V0.799999H-1.1V14.5H1.9ZM0.4 2.3H54.7V-0.700001H0.4V2.3ZM80.382 14.5V13H78.882V14.5H80.382ZM80.382 28.7H78.882V30.2H80.382V28.7ZM103.282 28.7H104.782V27.2H103.282V28.7ZM103.282 41.9V43.4H104.782V41.9H103.282ZM80.382 41.9V40.4H78.882V41.9H80.382ZM80.382 57.3H78.882V58.8H80.382V57.3ZM106.282 57.3H107.782V55.8H106.282V57.3ZM106.282 71V72.5H107.782V71H106.282ZM63.282 71H61.782V72.5H63.282V71ZM63.282 0.799999V-0.700001H61.782V0.799999H63.282ZM106.282 0.799999H107.782V-0.700001H106.282V0.799999ZM106.282 14.5V16H107.782V14.5H106.282ZM78.882 14.5V28.7H81.882V14.5H78.882ZM80.382 30.2H103.282V27.2H80.382V30.2ZM101.782 28.7V41.9H104.782V28.7H101.782ZM103.282 40.4H80.382V43.4H103.282V40.4ZM78.882 41.9V57.3H81.882V41.9H78.882ZM80.382 58.8H106.282V55.8H80.382V58.8ZM104.782 57.3V71H107.782V57.3H104.782ZM106.282 69.5H63.282V72.5H106.282V69.5ZM64.782 71V0.799999H61.782V71H64.782ZM63.282 2.3H106.282V-0.700001H63.282V2.3ZM104.782 0.799999V14.5H107.782V0.799999H104.782ZM106.282 13H80.382V16H106.282V13ZM161.084 58.6L162.504 58.1188L162.159 57.1H161.084V58.6ZM134.884 58.6V57.1H133.808L133.463 58.1188L134.884 58.6ZM130.684 71V72.5H131.759L132.104 71.4812L130.684 71ZM112.784 71L111.373 70.4896L110.646 72.5H112.784V71ZM138.184 0.799999V-0.700001H137.131L136.773 0.289642L138.184 0.799999ZM157.984 0.799999L159.394 0.289642L159.036 -0.700001H157.984V0.799999ZM183.384 71V72.5H185.521L184.794 70.4896L183.384 71ZM165.284 71L163.863 71.4812L164.208 72.5H165.284V71ZM156.684 45.4V46.9H158.775L158.104 44.919L156.684 45.4ZM147.984 19.7L149.404 19.219L147.975 14.9977L146.561 19.224L147.984 19.7ZM139.384 45.4L137.961 44.924L137.3 46.9H139.384V45.4ZM161.084 57.1H134.884V60.1H161.084V57.1ZM133.463 58.1188L129.263 70.5188L132.104 71.4812L136.304 59.0812L133.463 58.1188ZM130.684 69.5H112.784V72.5H130.684V69.5ZM114.194 71.5104L139.594 1.31035L136.773 0.289642L111.373 70.4896L114.194 71.5104ZM138.184 2.3H157.984V-0.700001H138.184V2.3ZM156.573 1.31035L181.973 71.5104L184.794 70.4896L159.394 0.289642L156.573 1.31035ZM183.384 69.5H165.284V72.5H183.384V69.5ZM166.704 70.5188L162.504 58.1188L159.663 59.0812L163.863 71.4812L166.704 70.5188ZM158.104 44.919L149.404 19.219L146.563 20.181L155.263 45.881L158.104 44.919ZM146.561 19.224L137.961 44.924L140.806 45.876L149.406 20.176L146.561 19.224ZM139.384 46.9H156.684V43.9H139.384V46.9ZM192.714 17.3L194.025 18.0285L194.029 18.0216L192.714 17.3ZM205.214 4.6L205.949 5.90737L205.955 5.90434L205.214 4.6ZM244.914 6.59999L245.808 5.39514L244.914 6.59999ZM256.814 24.6V26.1H258.76L258.265 24.2183L256.814 24.6ZM238.014 24.6L236.66 25.2461L237.068 26.1H238.014V24.6ZM232.014 17.9L231.237 19.1832L231.245 19.1877L231.252 19.192L232.014 17.9ZM210.514 21.1L211.634 22.0978L210.514 21.1ZM210.514 50.5L209.394 51.4978L210.514 50.5ZM232.014 53.7L231.252 52.408L231.245 52.4123L231.237 52.4167L232.014 53.7ZM238.014 47V45.5H237.068L236.66 46.3539L238.014 47ZM256.814 47L258.265 47.3817L258.76 45.5H256.814V47ZM244.914 65L245.799 66.2114L245.808 66.2049L244.914 65ZM205.214 67L204.466 68.3004L204.476 68.3059L204.486 68.3112L205.214 67ZM192.714 54.3L194.025 53.5715L192.714 54.3ZM189.714 35.8C189.714 29.0898 191.164 23.1794 194.025 18.0285L191.403 16.5715C188.264 22.2206 186.714 28.6435 186.714 35.8H189.714ZM194.029 18.0216C196.897 12.7956 200.865 8.76732 205.949 5.90736L204.479 3.29263C198.896 6.43267 194.531 10.8711 191.399 16.5784L194.029 18.0216ZM205.955 5.90434C211.108 2.97787 216.948 1.5 223.514 1.5V-1.5C216.48 -1.5 210.12 0.0887909 204.473 3.29565L205.955 5.90434ZM223.514 1.5C231.569 1.5 238.378 3.62072 244.021 7.80485L245.808 5.39514C239.583 0.77927 232.126 -1.5 223.514 -1.5V1.5ZM244.021 7.80485C249.662 11.9883 253.444 17.6888 255.363 24.9817L258.265 24.2183C256.184 16.3112 252.033 10.0117 245.808 5.39514L244.021 7.80485ZM256.814 23.1H238.014V26.1H256.814V23.1ZM239.368 23.9539C237.85 20.7729 235.653 18.3047 232.776 16.6079L231.252 19.192C233.575 20.562 235.379 22.5605 236.66 25.2461L239.368 23.9539ZM232.791 16.6167C229.999 14.9273 226.825 14.1 223.314 14.1V17.1C226.336 17.1 228.962 17.8061 231.237 19.1832L232.791 16.6167ZM223.314 14.1C217.654 14.1 212.968 16.0908 209.394 20.1022L211.634 22.0978C214.594 18.7758 218.44 17.1 223.314 17.1V14.1ZM209.394 20.1022C205.826 24.1072 204.114 29.3938 204.114 35.8H207.114C207.114 29.9395 208.669 25.4262 211.634 22.0978L209.394 20.1022ZM204.114 35.8C204.114 42.2062 205.826 47.4928 209.394 51.4978L211.634 49.5022C208.669 46.1738 207.114 41.6605 207.114 35.8H204.114ZM209.394 51.4978C212.968 55.5092 217.654 57.5 223.314 57.5V54.5C218.44 54.5 214.594 52.8242 211.634 49.5022L209.394 51.4978ZM223.314 57.5C226.825 57.5 229.999 56.6727 232.791 54.9832L231.237 52.4167C228.962 53.7939 226.336 54.5 223.314 54.5V57.5ZM232.776 54.9921C235.653 53.2953 237.85 50.8271 239.368 47.6461L236.66 46.3539C235.379 49.0395 233.575 51.038 231.252 52.408L232.776 54.9921ZM238.014 48.5H256.814V45.5H238.014V48.5ZM255.363 46.6183C253.444 53.9112 249.662 59.6117 244.021 63.7951L245.808 66.2049C252.033 61.5883 256.184 55.2888 258.265 47.3817L255.363 46.6183ZM244.029 63.7887C238.387 67.9098 231.574 70 223.514 70V73C232.121 73 239.575 70.7569 245.799 66.2113L244.029 63.7887ZM223.514 70C216.943 70 211.098 68.5528 205.943 65.6888L204.486 68.3112C210.13 71.4472 216.485 73 223.514 73V70ZM205.962 65.6996C200.866 62.7694 196.893 58.7343 194.025 53.5715L191.403 55.0285C194.535 60.6657 198.896 65.0972 204.466 68.3004L205.962 65.6996ZM194.025 53.5715C191.164 48.4206 189.714 42.5102 189.714 35.8H186.714C186.714 42.9565 188.264 49.3794 191.403 55.0285L194.025 53.5715ZM328.086 0.799999H329.586V-0.700001H328.086V0.799999ZM328.086 71V72.5H329.586V71H328.086ZM310.986 71H309.486V72.5H310.986V71ZM310.986 42.1H312.486V40.6H310.986V42.1ZM284.386 42.1V40.6H282.886V42.1H284.386ZM284.386 71V72.5H285.886V71H284.386ZM267.286 71H265.786V72.5H267.286V71ZM267.286 0.799999V-0.700001H265.786V0.799999H267.286ZM284.386 0.799999H285.886V-0.700001H284.386V0.799999ZM284.386 28.3H282.886V29.8H284.386V28.3ZM310.986 28.3V29.8H312.486V28.3H310.986ZM310.986 0.799999V-0.700001H309.486V0.799999H310.986ZM326.586 0.799999V71H329.586V0.799999H326.586ZM328.086 69.5H310.986V72.5H328.086V69.5ZM312.486 71V42.1H309.486V71H312.486ZM310.986 40.6H284.386V43.6H310.986V40.6ZM282.886 42.1V71H285.886V42.1H282.886ZM284.386 69.5H267.286V72.5H284.386V69.5ZM268.786 71V0.799999H265.786V71H268.786ZM267.286 2.3H284.386V-0.700001H267.286V2.3ZM282.886 0.799999V28.3H285.886V0.799999H282.886ZM284.386 29.8H310.986V26.8H284.386V29.8ZM312.486 28.3V0.799999H309.486V28.3H312.486ZM310.986 2.3H328.086V-0.700001H310.986V2.3ZM357.53 14.5V13H356.03V14.5H357.53ZM357.53 28.7H356.03V30.2H357.53V28.7ZM380.43 28.7H381.93V27.2H380.43V28.7ZM380.43 41.9V43.4H381.93V41.9H380.43ZM357.53 41.9V40.4H356.03V41.9H357.53ZM357.53 57.3H356.03V58.8H357.53V57.3ZM383.43 57.3H384.93V55.8H383.43V57.3ZM383.43 71V72.5H384.93V71H383.43ZM340.43 71H338.93V72.5H340.43V71ZM340.43 0.799999V-0.700001H338.93V0.799999H340.43ZM383.43 0.799999H384.93V-0.700001H383.43V0.799999ZM383.43 14.5V16H384.93V14.5H383.43ZM356.03 14.5V28.7H359.03V14.5H356.03ZM357.53 30.2H380.43V27.2H357.53V30.2ZM378.93 28.7V41.9H381.93V28.7H378.93ZM380.43 40.4H357.53V43.4H380.43V40.4ZM356.03 41.9V57.3H359.03V41.9H356.03ZM357.53 58.8H383.43V55.8H357.53V58.8ZM381.93 57.3V71H384.93V57.3H381.93ZM383.43 69.5H340.43V72.5H383.43V69.5ZM341.93 71V0.799999H338.93V71H341.93ZM340.43 2.3H383.43V-0.700001H340.43V2.3ZM381.93 0.799999V14.5H384.93V0.799999H381.93ZM383.43 13H357.53V16H383.43V13ZM430.332 71L429.018 71.7238L429.446 72.5H430.332V71ZM415.732 44.5L417.046 43.7762L416.618 43H415.732V44.5ZM411.632 44.5V43H410.132V44.5H411.632ZM411.632 71V72.5H413.132V71H411.632ZM394.532 71H393.032V72.5H394.532V71ZM394.532 0.799999V-0.700001H393.032V0.799999H394.532ZM437.332 3.7L436.661 5.04167L436.67 5.04617L437.332 3.7ZM446.132 11.7L444.828 12.4415L444.834 12.4526L446.132 11.7ZM445.032 35.4L443.819 34.5177L443.814 34.525L443.808 34.5324L445.032 35.4ZM433.432 43.2L433.003 41.7627L431.176 42.3083L432.136 43.9552L433.432 43.2ZM449.632 71V72.5H452.242L450.928 70.2448L449.632 71ZM411.632 32.4H410.132V33.9H411.632V32.4ZM429.232 30.1L428.194 29.017L428.183 29.0281L428.171 29.0393L429.232 30.1ZM429.232 17.3L428.171 18.3607L428.183 18.3719L428.194 18.383L429.232 17.3ZM411.632 15V13.5H410.132V15H411.632ZM431.646 70.2762L417.046 43.7762L414.418 45.2238L429.018 71.7238L431.646 70.2762ZM415.732 43H411.632V46H415.732V43ZM410.132 44.5V71H413.132V44.5H410.132ZM411.632 69.5H394.532V72.5H411.632V69.5ZM396.032 71V0.799999H393.032V71H396.032ZM394.532 2.3H423.232V-0.700001H394.532V2.3ZM423.232 2.3C428.596 2.3 433.053 3.23744 436.661 5.04164L438.003 2.35836C433.878 0.295887 428.935 -0.700001 423.232 -0.700001V2.3ZM436.67 5.04617C440.368 6.86346 443.061 9.33375 444.828 12.4414L447.436 10.9585C445.336 7.26624 442.163 4.40319 437.994 2.35382L436.67 5.04617ZM444.834 12.4526C446.626 15.5407 447.532 19.0111 447.532 22.9H450.532C450.532 18.5222 449.505 14.526 447.43 10.9474L444.834 12.4526ZM447.532 22.9C447.532 27.2596 446.293 31.1154 443.819 34.5177L446.245 36.2823C449.104 32.3513 450.532 27.8737 450.532 22.9H447.532ZM443.808 34.5324C441.437 37.876 437.879 40.3062 433.003 41.7627L433.861 44.6373C439.252 43.0271 443.427 40.2573 446.256 36.2676L443.808 34.5324ZM432.136 43.9552L448.336 71.7552L450.928 70.2448L434.728 42.4448L432.136 43.9552ZM449.632 69.5H430.332V72.5H449.632V69.5ZM411.632 33.9H422.232V30.9H411.632V33.9ZM422.232 33.9C425.586 33.9 428.373 33.0799 430.293 31.1607L428.171 29.0393C427.024 30.1868 425.145 30.9 422.232 30.9V33.9ZM430.27 31.183C432.238 29.2964 433.132 26.6947 433.132 23.6H430.132C430.132 26.1053 429.426 27.8369 428.194 29.017L430.27 31.183ZM433.132 23.6C433.132 20.6139 432.224 18.0897 430.27 16.217L428.194 18.383C429.44 19.5769 430.132 21.2527 430.132 23.6H433.132ZM430.293 16.2393C428.373 14.3201 425.586 13.5 422.232 13.5V16.5C425.145 16.5 427.024 17.2132 428.171 18.3607L430.293 16.2393ZM422.232 13.5H411.632V16.5H422.232V13.5ZM410.132 15V32.4H413.132V15H410.132Z" fill="#59606D"/>
</svg>
