<svg width="73" height="557" viewBox="0 0 73 557" fill="none" xmlns="http://www.w3.org/2000/svg">
<path d="M1.8 456.2L2.05225 455.232L0.799999 454.906V456.2H1.8ZM72 474.5H73V473.727L72.2523 473.532L72 474.5ZM72 495.2L72.2356 496.172L73 495.987V495.2H72ZM25.8 506.4L25.5644 505.428L25.5565 507.37L25.8 506.4ZM72 518H73V517.22L72.2435 517.03L72 518ZM72 538.7L72.2458 539.669L73 539.478V538.7H72ZM1.8 556.5H0.799999V557.785L2.04578 557.469L1.8 556.5ZM1.8 538.2L1.6061 537.219L0.799999 537.378V538.2H1.8ZM52.9 528.1L53.0939 529.081L53.1376 527.129L52.9 528.1ZM1.8 515.6H0.799999V516.385L1.56239 516.571L1.8 515.6ZM1.8 496.8L1.57138 495.826L0.799999 496.008V496.8H1.8ZM52.9 484.8L53.1286 485.774L53.0957 483.819L52.9 484.8ZM1.8 474.6H0.799999V475.42L1.60425 475.581L1.8 474.6ZM1.54774 457.168L71.7477 475.468L72.2523 473.532L2.05225 455.232L1.54774 457.168ZM71 474.5V495.2H73V474.5H71ZM71.7644 494.228L25.5644 505.428L26.0356 507.372L72.2356 496.172L71.7644 494.228ZM25.5565 507.37L71.7565 518.97L72.2435 517.03L26.0435 505.43L25.5565 507.37ZM71 518V538.7H73V518H71ZM71.7542 537.731L1.55421 555.531L2.04578 557.469L72.2458 539.669L71.7542 537.731ZM2.8 556.5V538.2H0.799999V556.5H2.8ZM1.9939 539.181L53.0939 529.081L52.7061 527.119L1.6061 537.219L1.9939 539.181ZM53.1376 527.129L2.03761 514.629L1.56239 516.571L52.6624 529.071L53.1376 527.129ZM2.8 515.6L2.8 496.8H0.799999L0.799999 515.6H2.8ZM2.02861 497.774L53.1286 485.774L52.6714 483.826L1.57138 495.826L2.02861 497.774ZM53.0957 483.819L1.99575 473.619L1.60425 475.581L52.7043 485.781L53.0957 483.819ZM2.8 474.6V456.2H0.799999V474.6H2.8ZM59.6 403.924L59.2792 402.977L58.6 403.207V403.924H59.6ZM59.6 430.124H58.6V430.841L59.2792 431.071L59.6 430.124ZM72 434.324H73V433.607L72.3208 433.377L72 434.324ZM72 452.224L71.6598 453.165L73 453.649V452.224H72ZM1.8 426.824H0.799999V427.526L1.45976 427.765L1.8 426.824ZM1.8 407.024L1.45976 406.084L0.799999 406.323V407.024H1.8ZM72 381.624H73V380.199L71.6598 380.684L72 381.624ZM72 399.724L72.3208 400.671L73 400.441V399.724H72ZM46.4 408.324H47.4V406.93L46.0794 407.377L46.4 408.324ZM20.7 417.024L20.3794 416.077L17.5651 417.03L20.3827 417.973L20.7 417.024ZM46.4 425.624L46.0827 426.573L47.4 427.013V425.624H46.4ZM58.6 403.924V430.124H60.6V403.924H58.6ZM59.2792 431.071L71.6792 435.271L72.3208 433.377L59.9208 429.177L59.2792 431.071ZM71 434.324L71 452.224H73L73 434.324H71ZM72.3402 451.284L2.14024 425.884L1.45976 427.765L71.6598 453.165L72.3402 451.284ZM2.8 426.824V407.024H0.799999V426.824H2.8ZM2.14024 407.965L72.3402 382.565L71.6598 380.684L1.45976 406.084L2.14024 407.965ZM71 381.624V399.724H73V381.624H71ZM71.6792 398.777L59.2792 402.977L59.9208 404.871L72.3208 400.671L71.6792 398.777ZM46.0794 407.377L20.3794 416.077L21.0206 417.971L46.7206 409.271L46.0794 407.377ZM20.3827 417.973L46.0827 426.573L46.7173 424.676L21.0173 416.076L20.3827 417.973ZM47.4 425.624V408.324H45.4V425.624H47.4ZM58.8 356.794V357.794H59.8V356.794H58.8ZM58.8 334.394V333.394H57.8V334.394H58.8ZM72 334.394H73V333.394H72V334.394ZM72 373.894V374.894H73V373.894H72ZM1.8 373.894H0.799999V374.894H1.8V373.894ZM1.8 356.794V355.794H0.799999V356.794H1.8ZM59.8 356.794V334.394H57.8V356.794H59.8ZM58.8 335.394H72V333.394H58.8V335.394ZM71 334.394V373.894H73V334.394H71ZM72 372.894H1.8V374.894H72V372.894ZM2.8 373.894V356.794H0.799999V373.894H2.8ZM1.8 357.794H58.8V355.794H1.8V357.794ZM1.8 309.137V308.137H0.799999V309.137H1.8ZM72 309.137H73V308.137H72V309.137ZM72 326.238V327.238H73V326.238H72ZM1.8 326.238H0.799999V327.238H1.8V326.238ZM1.8 310.137H72V308.137H1.8V310.137ZM71 309.137V326.238H73V309.137H71ZM72 325.238H1.8V327.238H72V325.238ZM2.8 326.238V309.137H0.799999V326.238H2.8ZM72 256.045L72.6057 256.841L73 256.541V256.045H72ZM41 279.645L40.3943 278.85L38.0356 280.645H41V279.645ZM72 279.645H73V278.645H72V279.645ZM72 296.745V297.745H73V296.745H72ZM1.8 296.745H0.799999V297.745H1.8V296.745ZM1.8 279.645V278.645H0.799999V279.645H1.8ZM32.6 279.645V280.645H35.5693L33.2049 278.849L32.6 279.645ZM1.8 256.245H0.799999V256.741L1.19505 257.042L1.8 256.245ZM1.8 236.145L2.42023 235.361L0.799999 234.08V236.145H1.8ZM36.2 263.345L35.5798 264.13L36.1988 264.619L36.8188 264.131L36.2 263.345ZM72 235.145H73V233.085L71.3812 234.36L72 235.145ZM71.3943 255.25L40.3943 278.85L41.6057 280.441L72.6057 256.841L71.3943 255.25ZM41 280.645H72V278.645H41V280.645ZM71 279.645V296.745H73V279.645H71ZM72 295.745H1.8V297.745H72V295.745ZM2.8 296.745V279.645H0.799999V296.745H2.8ZM1.8 280.645H32.6V278.645H1.8V280.645ZM33.2049 278.849L2.40495 255.449L1.19505 257.042L31.995 280.442L33.2049 278.849ZM2.8 256.245V236.145H0.799999V256.245H2.8ZM1.17976 236.93L35.5798 264.13L36.8202 262.561L2.42023 235.361L1.17976 236.93ZM36.8188 264.131L72.6188 235.931L71.3812 234.36L35.5812 262.56L36.8188 264.131ZM71 235.145V256.045H73V235.145H71ZM15.5 209.919H14.5V210.919H15.5V209.919ZM29.7 209.919L29.7 210.919H30.7L30.7 209.919H29.7ZM29.7 187.019V186.019H28.7V187.019H29.7ZM42.9 187.019H43.9V186.019H42.9V187.019ZM42.9 209.919H41.9L41.9 210.919H42.9L42.9 209.919ZM58.3 209.919L58.3 210.919H59.3L59.3 209.919H58.3ZM58.3 184.019V183.019H57.3V184.019H58.3ZM72 184.019H73V183.019H72V184.019ZM72 227.019V228.019H73V227.019H72ZM1.8 227.019H0.799999V228.019H1.8V227.019ZM1.8 184.019V183.019H0.799999V184.019H1.8ZM15.5 184.019H16.5V183.019H15.5V184.019ZM15.5 210.919H29.7L29.7 208.919H15.5V210.919ZM30.7 209.919V187.019H28.7V209.919H30.7ZM29.7 188.019H42.9V186.019H29.7V188.019ZM41.9 187.019V209.919H43.9V187.019H41.9ZM42.9 210.919H58.3L58.3 208.919H42.9L42.9 210.919ZM59.3 209.919V184.019H57.3V209.919H59.3ZM58.3 185.019H72V183.019H58.3V185.019ZM71 184.019L71 227.019H73L73 184.019H71ZM72 226.019H1.8V228.019H72V226.019ZM2.8 227.019V184.019H0.799999V227.019H2.8ZM1.8 185.019H15.5V183.019H1.8V185.019ZM14.5 184.019V209.919H16.5V184.019H14.5ZM58.8 155.817V156.817H59.8V155.817H58.8ZM58.8 133.417V132.417H57.8V133.417H58.8ZM72 133.417H73V132.417H72V133.417ZM72 172.917V173.917H73V172.917H72ZM1.8 172.917H0.799999V173.917H1.8V172.917ZM1.8 155.817V154.817H0.799999V155.817H1.8ZM59.8 155.817V133.417H57.8V155.817H59.8ZM58.8 134.417H72V132.417H58.8V134.417ZM71 133.417V172.917H73V133.417H71ZM72 171.917H1.8V173.917H72V171.917ZM2.8 172.917V155.817H0.799999V172.917H2.8ZM1.8 156.817H58.8V154.817H1.8V156.817ZM59.6 81.5609L59.2792 80.6138L58.6 80.8438V81.5609H59.6ZM59.6 107.761H58.6V108.478L59.2792 108.708L59.6 107.761ZM72 111.961H73V111.244L72.3208 111.014L72 111.961ZM72 129.861L71.6598 130.801L73 131.286V129.861H72ZM1.8 104.461H0.799999V105.163L1.45976 105.401L1.8 104.461ZM1.8 84.6609L1.45976 83.7206L0.799999 83.9593V84.6609H1.8ZM72 59.2609H73V57.8357L71.6598 58.3206L72 59.2609ZM72 77.3609L72.3208 78.3081L73 78.078V77.3609H72ZM46.4 85.9609H47.4V84.5667L46.0794 85.0137L46.4 85.9609ZM20.7 94.6609L20.3794 93.7137L17.5651 94.6664L20.3827 95.6093L20.7 94.6609ZM46.4 103.261L46.0827 104.209L47.4 104.65V103.261H46.4ZM58.6 81.5609V107.761H60.6V81.5609H58.6ZM59.2792 108.708L71.6792 112.908L72.3208 111.014L59.9208 106.814L59.2792 108.708ZM71 111.961V129.861H73V111.961H71ZM72.3402 128.921L2.14024 103.521L1.45976 105.401L71.6598 130.801L72.3402 128.921ZM2.8 104.461V84.6609H0.799999V104.461H2.8ZM2.14024 85.6013L72.3402 60.2013L71.6598 58.3206L1.45976 83.7206L2.14024 85.6013ZM71 59.2609V77.3609H73V59.2609H71ZM71.6792 76.4138L59.2792 80.6138L59.9208 82.5081L72.3208 78.3081L71.6792 76.4138ZM46.0794 85.0137L20.3794 93.7137L21.0206 95.6081L46.7206 86.9081L46.0794 85.0137ZM20.3827 95.6093L46.0827 104.209L46.7173 102.313L21.0173 93.7126L20.3827 95.6093ZM47.4 103.261V85.9609H45.4V103.261H47.4ZM70.2 39.9305L71.1253 40.3097L70.2 39.9305ZM62.8 49.7305L63.3921 50.5364L63.4026 50.5285L62.8 49.7305ZM51 53.5305H50V54.5599L51.029 54.5301L51 53.5305ZM51 35.3304L50.898 34.3357L50 34.4278V35.3304H51ZM57 32.6305L57.7385 33.3047L57.7467 33.2958L57.7546 33.2866L57 32.6305ZM57.3 20.6305L58.0913 20.019L58.0828 20.008L58.074 19.9973L57.3 20.6305ZM48.1 20.2305L48.8071 20.9376L48.8172 20.9275L48.827 20.9171L48.1 20.2305ZM45.3 24.5305L46.2153 24.9332L46.2182 24.9267L46.221 24.9201L45.3 24.5305ZM42.8 31.7305L43.7555 32.0256L43.7584 32.0159L42.8 31.7305ZM38.6 42.8304L39.4986 43.2693L38.6 42.8304ZM32.4 50.2305L31.7969 49.4328L32.4 50.2305ZM6.4 46.2305L7.19058 45.618L7.18517 45.6112L6.4 46.2305ZM6.4 9.03046L7.1852 9.64978L7.19055 9.64288L6.4 9.03046ZM21.8 1.43048H22.8V0.378662L21.7496 0.431763L21.8 1.43048ZM21.8 19.9305L21.8587 20.9287L22.8 20.8734V19.9305H21.8ZM16.5 22.4305L17.2546 23.0867L17.2629 23.0771L17.271 23.0673L16.5 22.4305ZM16.2 33.3304L16.9649 32.6863L16.9552 32.6749L16.9452 32.6637L16.2 33.3304ZM26.2 32.0305L25.3401 31.52L26.2 32.0305ZM30.3 22.0305L29.3526 21.71L29.3486 21.7227L30.3 22.0305ZM34.7 11.0305L35.5945 11.4777L35.5986 11.4693L34.7 11.0305ZM40.8 3.63049L41.4126 4.4209H41.4126L40.8 3.63049ZM62 3.63049L61.4654 4.47552L61.4716 4.47949L61.4778 4.48334L62 3.63049ZM69.8 12.4305L68.9056 12.8777L69.8 12.4305ZM71.7 26.1305C71.7 31.1553 70.8845 35.6234 69.2747 39.5513L71.1253 40.3097C72.8489 36.1042 73.7 31.3723 73.7 26.1305H71.7ZM69.2747 39.5513C67.6709 43.4645 65.3103 46.5818 62.1974 48.9324L63.4026 50.5285C66.823 47.9457 69.3958 44.5297 71.1253 40.3097L69.2747 39.5513ZM62.2079 48.9246C59.1265 51.1885 55.3965 52.4026 50.971 52.5309L51.029 54.5301C55.8035 54.3917 59.9402 53.0724 63.3921 50.5363L62.2079 48.9246ZM52 53.5305V35.3304H50V53.5305H52ZM51.102 36.3253C53.8808 36.0402 56.1333 35.0628 57.7385 33.3047L56.2615 31.9562C55.0667 33.2648 53.3192 34.0873 50.898 34.3357L51.102 36.3253ZM57.7546 33.2866C59.2783 31.5344 60 29.2844 60 26.6305H58C58 28.9099 57.3884 30.6599 56.2454 31.9743L57.7546 33.2866ZM60 26.6305C60 23.956 59.4019 21.7151 58.0913 20.019L56.5087 21.2419C57.4648 22.4791 58 24.2382 58 26.6305H60ZM58.074 19.9973C56.6653 18.2755 54.7357 17.4305 52.4 17.4305V19.4305C54.1977 19.4305 55.5347 20.0521 56.526 21.2637L58.074 19.9973ZM52.4 17.4305C50.407 17.4305 48.7056 18.1328 47.373 19.5438L48.827 20.9171C49.7611 19.9281 50.9263 19.4305 52.4 19.4305V17.4305ZM47.3929 19.5234C46.1541 20.7621 45.1539 22.3092 44.379 24.1408L46.221 24.9201C46.9127 23.285 47.7792 21.9655 48.8071 20.9376L47.3929 19.5234ZM44.3847 24.1277C43.6263 25.8512 42.7791 28.2977 41.8416 31.445L43.7584 32.0159C44.6876 28.8965 45.507 26.543 46.2153 24.9332L44.3847 24.1277ZM41.8445 31.4354C40.4532 35.9407 39.0707 39.5878 37.7014 42.3917L39.4986 43.2693C40.9293 40.3398 42.3468 36.5869 43.7555 32.0255L41.8445 31.4354ZM37.7014 42.3917C36.3754 45.1068 34.4144 47.4537 31.7969 49.4328L33.0031 51.0281C35.8522 48.8739 38.0246 46.2875 39.4986 43.2693L37.7014 42.3917ZM31.7969 49.4328C29.2811 51.335 25.9446 52.3305 21.7 52.3305V54.3305C26.2554 54.3305 30.0523 53.2592 33.0031 51.0281L31.7969 49.4328ZM21.7 52.3305C15.4435 52.3305 10.6488 50.0824 7.19055 45.618L5.60945 46.8429C9.48453 51.8452 14.8898 54.3305 21.7 54.3305V52.3305ZM7.18517 45.6112C3.62391 41.096 1.8 35.1654 1.8 27.7305H-0.200001C-0.200001 35.4955 1.70942 41.8983 5.61483 46.8497L7.18517 45.6112ZM1.8 27.7305C1.8 20.1575 3.62619 14.162 7.18517 9.64978L5.61483 8.41119C1.70714 13.3656 -0.200001 19.8368 -0.200001 27.7305H1.8ZM7.19055 9.64288C10.6588 5.16565 15.5077 2.74951 21.8504 2.4292L21.7496 0.431763C14.8923 0.778076 9.47454 3.42859 5.60945 8.41809L7.19055 9.64288ZM20.8 1.43048V19.9305H22.8V1.43048H20.8ZM21.7413 18.9322C19.2405 19.0793 17.1984 20.0149 15.729 21.7936L17.271 23.0673C18.3349 21.7794 19.8262 21.0483 21.8587 20.9287L21.7413 18.9322ZM15.7454 21.7743C14.226 23.5215 13.5 25.7354 13.5 28.3304H15.5C15.5 26.1256 16.1073 24.4061 17.2546 23.0867L15.7454 21.7743ZM13.5 28.3304C13.5 30.5875 14.1237 32.5096 15.4548 33.9973L16.9452 32.6637C16.0096 31.618 15.5 30.2068 15.5 28.3304H13.5ZM15.4351 33.9746C16.7376 35.5214 18.6179 36.2305 20.9 36.2305V34.2305C19.0488 34.2305 17.7957 33.6729 16.9649 32.6863L15.4351 33.9746ZM20.9 36.2305C23.5581 36.2305 25.6336 34.9431 27.0599 32.541L25.3401 31.52C24.2331 33.3845 22.7752 34.2305 20.9 34.2305V36.2305ZM27.0599 32.541C28.3848 30.3094 29.7787 26.8903 31.2514 22.3383L29.3486 21.7227C27.8879 26.2373 26.5485 29.4848 25.3401 31.52L27.0599 32.541ZM31.2473 22.3509C32.7727 17.8408 34.2226 14.2213 35.5944 11.4777L33.8056 10.5833C32.3774 13.4397 30.8939 17.1534 29.3527 21.7101L31.2473 22.3509ZM35.5986 11.4693C36.9275 8.74805 38.8597 6.39929 41.4126 4.4209L40.1874 2.84003C37.4069 4.99493 35.2725 7.57953 33.8014 10.5916L35.5986 11.4693ZM41.4126 4.4209C43.8647 2.52051 47.0664 1.53046 51.1 1.53046V-0.469543C46.7336 -0.469543 43.0687 0.607056 40.1874 2.84003L41.4126 4.4209ZM51.1 1.53046C54.9176 1.53046 58.3644 2.51373 61.4654 4.47552L62.5346 2.7854C59.1022 0.613892 55.2823 -0.469543 51.1 -0.469543V1.53046ZM61.4778 4.48334C64.5651 6.37347 67.0449 9.15631 68.9056 12.8777L70.6944 11.9833C68.6885 7.97131 65.9683 4.88751 62.5222 2.77759L61.4778 4.48334ZM68.9056 12.8777C70.756 16.5784 71.7 20.9857 71.7 26.1305H73.7C73.7 20.7419 72.7107 16.0158 70.6944 11.9833L68.9056 12.8777Z" fill="#59606D"/>
</svg>
